# xmcd
#
# Track frame offsets:
#	180
#	11502
#	27701
#	40111
#	53643
#	66486
#	80472
#	95441
#	105312
#	119022
#	133786
#	147424
#	162806
#	177942
#
# Disc length: 2512 seconds
#
# Revision: 0
# Processed by: cddbd v1.4PL0 Copyright (c) Steve Scherf et al.
# Submitted via: EasyCDDAExtractor 4.6.9.1
#
DISCID=bf09ce0e
DTITLE=KBS 가요무대 - CD5
DYEAR=2001
DGENRE=Oldies
TTITLE0=향기품은 군사우편
TTITLE1=개나리 처녀
TTITLE2=청실 홍실
TTITLE3=추풍령
TTITLE4=서울야곡
TTITLE5=허공
TTITLE6=잃어버링 30년
TTITLE7=산너머 남촌에는
TTITLE8=사랑은 나비인가
TTITLE9=아주까리 등불
TTITLE10=섬마을 선생님
TTITLE11=봉선화 연정
TTITLE12=봉선화 연정
TTITLE13=비내리는 호남선
EXTD=
EXTT0=
EXTT1=
EXTT2=
EXTT3=
EXTT4=
EXTT5=
EXTT6=
EXTT7=
EXTT8=
EXTT9=
EXTT10=
EXTT11=
EXTT12=
EXTT13=
PLAYORDER=
